<?xml version="1.0" encoding="utf-8"?>
<!-- Generator: Adobe Illustrator 16.0.0, SVG Export Plug-In . SVG Version: 6.00 Build 0)  -->
<!DOCTYPE svg PUBLIC "-//W3C//DTD SVG 1.1//EN" "http://www.w3.org/Graphics/SVG/1.1/DTD/svg11.dtd">
<svg version="1.1" id="Layer_1" xmlns="http://www.w3.org/2000/svg" xmlns:xlink="http://www.w3.org/1999/xlink" x="0px" y="0px"
	 width="5763.684px" height="1204.576px" viewBox="0 0 5763.684 1204.576" enable-background="new 0 0 5763.684 1204.576"
	 xml:space="preserve">
<path fill="#ffffff" d="M4436.745,105.038l12.239-18.552c46.378-16.609,91.675,27.935,110.546,0
	c35.753,2.16,38.18,12.511,61.529,24.7c-0.697,49.935-4.205,95.338-12.402,135.892c-3.502,18.225,4.746,33.325,6.203,43.142
	c7.389,51.444,0.646,119.171,0,166.845c-0.539,39.04-32.033,113.135-6.203,154.439c-0.539,27.502,2.318,28.904-18.334,36.995
	c-33.756,14.772-113.62-18.659-153.578,6.147c-17.365,7.223-11.648,0.862-18.496,18.548h-6.148
	c7.496,21.141,17.418,22.111,24.645,43.358c57.699,11.972,104.883,6.254,165.873,6.038c12.242-1.939,24.482-4.099,36.887-6.038
	c21.082,3.559,181.295,16.822,196.558,12.186c12.022-3.559,18.98-28.365,36.776-24.59l18.443,18.443
	c16.448-1.939,32.785-4.099,49.123-6.038c12.188,2.05,49.072,16.606,55.33,18.443c22.324,6.254,52.793-16.933,73.769-18.443
	c17.906-1.296,27.989,15.96,36.776,18.443c43.41,11.86,76.469-39.796,110.657,0c25.56-2.266,26.099-2.913,36.776-18.443
	l-6.041-24.806c-26.531-36.994-111.68-23.19-159.729-24.7c-35.535-72.905-19.411-175.688-18.44-277.824
	c0.377-45.404,16.069-99.977-6.147-135.998c-8.844-21.465-34.996-28.475-55.326-37.102c2.533-12.728,1.509-11.865,6.148-18.441
	c10.189-26.316,34.939-28.365,61.42-36.995c8.088-18.659,22.324-63.306,6.2-86.497c-11.812-25.559-17.58-12.4-43.089-24.806
	c-60.068-28.904-52.145-9.059-98.305,24.806c-2.747,24.807-1.51,46.378,0,74.095c14.939,7.228,24.861,14.127,43.086,18.442
	c-0.106,20.597-1.777,36.778-6.198,49.395c-36.077-0.433-68.109-23.726-98.255-12.4c-17.902,6.899-24.211,18.008-61.418,18.654
	c-3.991,10.68-1.241,6.147-6.203,12.405c-0.321,38.933,5.341,46.913,18.442,67.943c35.375-7.439,66.06-30.09,98.306,0
	c33.921-0.536,54.68,2.05,73.769,12.405c0.433,69.564-1.671,151.962-6.198,209.771c-2.861,36.884,18.547,81.424,0,111.302
	l-6.147,18.442c-26.638,4.098-53.226,8.302-79.865,12.401c-40.657-7.657-138.049-28.582-159.673-12.401
	c-40.335-4.315-38.23-24.267-61.421-43.143c0.54-140.095,33.112-268.44,6.095-407.78c4.044-51.339,8.143-102.783,12.346-154.338
	c-4.203-14.126-18.981-25.775-24.641-43.248c-24.593-4.962-58.941-6.577-92.105-6.037c-51.121,31.49-126.996-13.697-172.074,24.59
	c-9.493,11.648-15.102,32.14-18.443,49.501l24.645,24.7C4427.575,99.966,4425.202,107.84,4436.745,105.038"/>
<path fill="#ffffff" d="M3318.548,673.194c1.455,14.237,1.242,17.366,6.203,24.699l42.976,24.806
	c36.886,13.158,66.006-25.452,110.546-12.511c10.785,3.342,29.93,21.46,55.33,12.511l12.239-12.511l18.442-6.147
	c-4.204-41.093-62.498-51.338-92.104-67.837c-4.098-165.335,7.065-282.246,116.748-333.584c15.101-7.116,54.141-22.65,73.662-12.294
	c22.004-0.106,41.521,1.293,55.33,6.253c18.764,44.005,53.439,270.168,24.533,314.925c-3.881,44.112-38.987,50.259-73.662,61.691
	c2.429,12.728,1.51,11.971,6.041,18.552c5.554,13.698,19.357,26.205,30.844,30.953c11.381,4.745,147.434,0,147.434,0
	c38.771,0.323,46.699-5.284,67.568-18.659c-3.774-23.726-9.386-27.395-18.443-43.141c-17.688-6.254-47.131-8.413-61.529-18.442
	l-18.333-6.254c-0.11-125.323,0-220.666,0-339.625c-23.296-24.265-41.849-59.424-73.771-74.308
	c-70.91-48.639-196.34-7.117-227.241,43.354c-46.646-3.018-39.581-30.414-61.529-55.543c-18.008-12.94-54.787-23.187-79.865-24.806
	c-26.26,55.007,10.949,85.203,24.646,142.149c12.025,49.935-1.672,82.827,0,129.527c2.104,57.809,21.302,128.451-6.199,191.651
	C3373.335,657.665,3339.58,662.519,3318.548,673.194"/>
<path fill="#ffffff" d="M2169.721,648.498c-6.525-79.81-5.717-154.011-6.197-246.981c-0.111-34.401-14.994-74.631,0-98.792
	c-1.999-58.667-43.409-69.346-73.667-98.897c-35.425,3.453-113.619,14.021-128.987,49.502
	c-55.22-5.715-136.916-80.456-184.317-18.549c-57.971-3.235-28.258-11.219-55.331-30.954c-34.78-4.099-69.559-8.196-104.449-12.405
	c-7.661,9.922-12.839,12.728-24.539,18.553c-3.991,10.675-1.241,6.041-6.198,12.511c-0.323,53.923,35.916,67.514,67.621,86.385
	c1.292,164.583,35.425,268.119-42.976,370.468c2.206,23.191,4.744,23.08,12.239,37.102c26.099,1.619,162.905-6.577,178.17-18.443
	l12.346-6.147c-5.173-21.893-66.923-50.797-86.011-61.906c-0.646-91.458-16.662-214.298,24.484-283.972
	c18.926-31.922,57.808-40.336,79.863-68.054c37.317,3.775,31.061,17.043,49.122,37.101c-2.638,17.043-9.594,17.043-12.237,24.7
	c-11.595,34.188,7.388,81.751,12.237,98.791c10.09,34.511-8.14,75.388-12.237,92.643c-15.479,65.466,33.809,98.901-30.682,142.04
	c2.856,27.934,7.929,26.533,18.44,43.249c18.333-2.696,20.76-3.019,30.683-12.186c50.046,0.97,83.154-1.513,110.55-18.769v-12.294
	c-20.439-6.147-40.825-12.294-61.372-18.442c-13.264-150.452-5.875-259.272,67.573-358.28c12.832-8.842,37.209-9.599,49.125-18.552
	c19.466,3.563,17.906,5.395,30.735,12.405c3.508,55.437,12.891,115.94,12.352,185.287c-0.323,29.767-17.474,54.14-12.352,74.095
	l12.352,12.401c4.098,75.604-1.994,93.29-61.529,104.938c0.378,19.093,2.21,31.71,6.203,43.358
	c58.186-3.774,121.815-11.648,184.316-18.552l6.092-6.364C2224.83,653.136,2200.784,652.919,2169.721,648.498"/>
<path fill="#ffffff" d="M4037.428,438.618c2.64-77.438,64.492-100.73,98.308-148.293c18.977,0.43,38.715,0.863,49.123-6.041
	c17.902-0.217,33.487-0.43,42.98,6.041c48.154,3.452,147.863,92.536,110.545,148.293c3.397,179.679-32.569,132.12-116.749,209.88
	c-99.385,1.403-160.803-51.015-184.207-123.385C4026.48,491.358,4048.375,459.759,4037.428,438.618 M4080.404,704.147
	c31.761,19.521,75.71,6.257,104.454,12.295c13.59,2.912,12.244,21.677,30.686,18.552c100.193-17.256,190.949-95.45,221.201-185.288
	c60.988-181.298-80.136-356.341-239.643-358.283c-21.627,13.269-52.202,2.482-79.814,12.512
	c-54.246,19.198-125.59,77.759-147.429,129.531C3904.016,489.309,3971.261,636.849,4080.404,704.147"/>
<path fill="#ffffff" d="M2581.389,630.056c-83.154,36.774-140.799,36.991-208.958-6.147c-5.29-13.374-10.034-32.679-18.447-43.247
	c11.598-108.284,152.179-37.858,221.202-86.497h24.644c9.6,14.667,18.227,18.009,24.483,36.99
	C2638.602,556.284,2594.652,608.268,2581.389,630.056 M2759.502,654.752c-33.432-2.266-31.705-10.569-55.325-18.549
	c0.808-54.573,0.808-117.126-18.335-154.443c5.446-43.031,34.779-108.068,18.335-166.629
	c-28.474-102.137-136.703-113.674-257.979-111.302c-13.157,12.078-28.258,13.159-55.329,12.294
	c-26.635,26.856-60.501,32.463-73.662,74.096h-6.203c-0.859,62.553,12.946,72.582,36.889,105.151
	c30.735-1.833,35.375-8.732,61.423-12.295c6.631-20.491,24.104-27.718,30.682-43.354v-37.102
	c9.705-18.552,85.148-29.334,104.508-36.994c15.207,15.535,29.227,11.759,49.124,24.594c19.092,12.507,22.54,47.346,42.979,61.903
	c2.317,28.258,8.252,36.778-6.091,55.543c-26.371,34.082-140.803,59.968-215.004,43.141l-24.645-12.294
	c-45.62,1.187-79.54,60.287-110.547,80.243c-1.023,32.68-19.683,61.15-12.239,86.496c15.854,54.896,60.827,79.053,92.104,117.34
	c88.544,2.482,211.926,15.206,264.126-43.249c42.441,9.493,64.17,39.473,116.749,49.506c17.578-15.423,41.952-31.17,61.421-43.358
	c-1.24-25.559-4.208-28.253-12.294-43.138C2772.014,645.153,2769.48,645.586,2759.502,654.752"/>
<path fill="#ffffff" d="M5511.908,648.604c-55.222,0.646-75.228,12.295-129.15,12.188c-18.876-19.522-46.271-45.514-67.569-61.69
	c0.646-143.441,145.545-49.183,214.998-104.938h30.848c14.345,22.218,24.534,27.502,24.534,67.944
	C5567.56,579.687,5526.9,628.437,5511.908,648.604 M5751.444,642.351c-26.533,3.342-42.329,17.579-61.423,6.254
	c-14.233-4.639-13.804-6.47-24.641-12.401c-1.62-26.315-7.499-63.85-12.243-86.496c-17.684-83.155,35.108-181.728,0-234.687
	c-4.422-109.143-145.329-114.644-251.939-111.192c-12.994,12.188-28.146,13.264-55.219,12.511
	c-15.313,17.902-44.596,40.227-67.568,49.18c-5.068,34.617-17.146,69.886,0,92.643c9.17,29.875,46.376,51.445,73.662,24.806
	c42.06-15.746,37.209-56.511,55.328-80.349c17.469-29.873,53.656-9.059,73.662-30.847c77.114,2.049,75.333,52.308,116.747,86.39
	c0.108,122.411-158.269,93.184-251.831,80.349c-16.447,10.892-43.031,18.225-61.474,30.953
	c-17.688,12.188-23.675,36.779-42.979,49.29c-5.067,47.775-22.111,95.445,6.203,135.998c10.135,6.041,20.436,12.294,30.682,18.442
	c16.123,24.806,11.593,33.759,42.98,43.249c48.692,32.679,234.898-3.452,264.177-37.102c42.278,9.493,58.511,39.473,110.55,49.506
	c15.635-13.591,40.82-30.74,61.474-36.995c1.347-14.45,1.241-17.579,6.092-24.806
	C5759.156,652.702,5757.267,653.349,5751.444,642.351"/>
<path fill="#ffffff" d="M2931.525,698c39.636-7.549,103.808-7.439,128.988-30.953c83.261,1.296,136.054,38.721,184.318,74.096
	c-3.504,95.771-198.931,119.711-288.66,86.496c-19.902-7.333-47.51-31.17-67.626-43.358
	C2894.643,743.297,2913.838,725.289,2931.525,698 M3023.736,259.479c23.836,3.345,51.555,11.864,67.569,24.699
	c26.21,10.785,28.85,38.827,49.071,55.543c-0.483,76.573-40.552,72.258-73.66,111.195h-61.423
	c-11.593-12.728-24.644-24.916-43.086-30.847c-3.882-13.804-4.527-16.286-12.239-24.806
	C2948.943,308.011,2987.07,303.806,3023.736,259.479 M3115.845,518.86c26.582-24.696,53.222-49.502,79.86-74.096
	c0.862-50.258,10.895-83.796,24.591-123.597c24.32-1.721,47.293,8.736,67.621-6.254c48.695-34.835,9.707-91.24-12.399-123.379
	c-20.173-4.209-45.463-6.687-73.665-6.258c-41.846,35.915-56.837,21.465-98.252,6.258c-43.087,2.049-86.063,3.988-128.988,6.147
	c-31.493,32.786-83.961,56.188-98.306,104.937c-21.678,73.339,34.026,133.843,12.239,197.693
	c-14.343,42.168-56.512,76.787-6.147,129.634c-5.123,50.259-79.541,110.979-30.736,172.993
	c29.281,84.663,249.025,111.196,350.19,74.202c37.694-13.91,67.407-56.946,98.306-80.349
	c1.997-120.362-47.293-156.813-141.339-179.141c-49.501-11.753-134.22,18.12-165.874,6.258l-12.295-18.552
	c-15.581-8.953-41.952-11.865-55.222-18.548c2.429-12.623,1.46-11.866,6.097-18.553
	C2955.576,509.154,3054.422,550.03,3115.845,518.86"/>
<path fill="#ffffff" d="M959.472,179.13c1.403,71.938-46.211,106.664-116.744,104.937l-6.203,6.152v12.507
	c123.491-1.938,200.979-112.055,344.148-61.689c54.413,19.092,85.472,68.054,122.79,104.832l6.202-6.147
	C1271,127.901,1052.013,75.594,799.748,80.448c23.514,20.381,60.287,10.246,92.104,24.59
	C922.805,118.948,934.832,158.749,959.472,179.13"/>
<path fill="#ffffff" d="M443.409,179.13c39.528,13.697,82.83,77.653,104.454,111.089c17.471-0.65,26.263-2.376,36.778-6.152
	c-5.286-29.01-28.851-70.426-49.127-86.385c0.971-53.065,23.404-54.897,49.127-80.243h12.348v-6.253h-36.884
	c-40.283,36.454-124.569,26.745-165.875,61.797h-12.24C396.764,182.042,422.431,172.012,443.409,179.13"/>
<path fill="#ffffff" d="M252.944,426.217c24.213-6.47,87.25-25.563,116.748-6.254c39.42,0.863,75.065,0.106,98.253-12.298
	c-2.372-12.618-1.509-11.862-6.147-18.443v-12.507H302.072c-16.449,4.852-64.819,24.589-98.253,12.507
	c-37.315-13.697-43.626-51.768-73.77-67.944C54.822,432.471-24.61,453.935,7.206,648.498l6.095,6.147
	c22.539-3.992,26.262-10.14,43.085-18.442C101.415,496.104,105.404,465.367,252.944,426.217"/>
<path fill="#C4161C" d="M554.01,456.953c20.438-59.101,87.359-55.649,128.989-92.537c78.083-0.753,98.736,14.884,141.286,43.249
	c1.183,93.833-46.971,88.009-85.958,135.784c-52.201,3.881-119.067,27.936-159.782-6.147
	c-17.688-11.971-22.757-28.147-36.886-43.031C543.979,476.475,545.705,467.416,554.01,456.953 M234.502,759.689
	c38.666-8.302,80.942-30.736,110.548-49.395c13.481-29.874,19.789-89.298,36.884-117.339c8.845-14.455,27.61-25.78,36.886-43.249
	c16.555-4.314,26.639-8.524,36.884-18.446c76.412-1.075,82.183,20.925,122.842,49.29c-1.348,68.7-13.697,86.606-24.536,129.744
	c-9.276,36.777,16.123,55.653,24.536,74.095c36.399,79.592,109.416,115.401,190.517,148.186
	c27.935,11.326,47.351,3.559,67.569,18.549h36.778c-10.191-14.344-20.437-28.688-30.682-43.248
	c-17.473-53.277,53.222-181.942,73.768-203.836c-4.312-80.995-60.559-60.721-104.505-98.684
	c-10.246-8.953-14.564-27.395-24.487-36.994c10.572-171.807,216.674,20.495,313.309-6.36
	c97.822-27.179,128.342-99.654,190.354-160.591v-24.59c-41.846-37.316-67.458-86.39-128.988-105.048
	c-80.943-24.479-186.417,16.07-227.242,43.248c-18.552,12.188-47.721,37.642-79.86,18.659c-35.702-2.05-34.891-11.109-55.331-24.913
	c2.534-59.101,83.15-67.514,122.786-86.496c0.221-17.795,0.327-33.542-6.037-43.141c-14.723-42.709-154.657-80.026-202.76-92.644
	c-27.609,34.511-92.265,49.829-135.19,67.947c-3.99,10.569-1.242,6.041-6.094,12.295c6.74,41.629,61.314,91.024,36.777,129.744
	c-8.087,20.275-17.203,18.013-30.683,30.848c-62.608-6.364-76.412-45.301-104.4-86.39c-10.46-15.424-35.859-18.229-49.125-30.848
	c-27.394-0.862-43.302-1.832-55.329,12.188c-56.999,0.863-67.567-10.568-98.306-30.736c-27.285-18.013-72.528,64.062-92.211,80.238
	c-0.538,19.199-1.779,32.573,0,36.994c2.858,27.936,7.981,26.532,18.444,43.355c62.929,3.235,200.655-37.208,245.737-6.253
	c43.302,2.372,38.34,18.225,61.528,36.993c-1.241,47.776-18.443,47.347-36.885,74.092c-143.278-0.323-292.005-18.442-350.246,74.308
	C79.359,592.305,123.954,654,37.944,679.451C51.103,716.119,175.886,772.308,234.502,759.689"/>
<path fill="#1E1B1C" d="M590.841,518.86c45.297-5.824,51.714-40.766,86.011-55.65c33.488-14.453,79.863,7.981,104.399-6.147
	l18.446-6.147c-1.998-30.74-6.525-26.319-18.446-43.142c-32.678-2.159-65.518-4.098-98.304-6.364
	c-17.905,12.728-40.174,7.444-61.422,18.659c-14.344,14.343-28.582,28.794-42.925,43.141c-2.803,19.735-1.024,19.735-6.201,37.102
	C584.963,507.858,584.101,504.3,590.841,518.86"/>
<path fill="#1E1B1C" d="M1321.905,413.815c-13.477,17.902-12.775,47.882-24.59,67.944
	c-19.679,33.865-74.257,106.771-104.398,129.743c-52.469,39.797-114.431,86.39-172.074,117.344
	c-30.469,16.283-65.899,17.362-92.108,37.101c-26.583,19.845-45.349,63.199-49.123,105.044
	c154.384-22.105,347.442-161.882,411.611-278.036c20.76-37.535,68.7-113.14,30.682-172.887V413.815z"/>
<path fill="#ffffff" d="M947.177,716.442c6.258,4.961,1.514,2.372,12.243,6.257c35.213-36.025,96.525-54.68,141.393-80.349
	c36.773-30.741,73.662-61.8,110.545-92.644v-12.405c-26.745,17.04-60.555,45.515-92.103,55.654
	c-104.403,33.325-193.271-59.858-288.823-61.695c-1.781,5.502-13.267,24.271-6.202,36.995c12.027,21.354,65.84,28.147,86.063,43.354
	c15.314,11.22,19.845,32.14,36.884,43.036c0.221,23.726-0.914,46.7-6.198,61.797H947.177z"/>
<path fill="#ffffff" d="M535.567,592.956c-8.304-19.846-18.658-16.61-30.738-30.848c-112.271,4.854-77.382,68.377-110.545,141.932
	c-23.943,53.061-119.5,86.713-202.76,86.603c58.995,47.346,252.371,39.367,362.486,36.994
	c-6.417-33.542-29.929-51.984-36.884-86.496C505.531,683.979,575.311,640.084,535.567,592.956"/>
<path fill="#1E1B1C" d="M787.453,975.931c-67.623-25.02-167.869-63.957-202.813-123.598c-105.749,4.314-232.689,20.707-325.548-12.4
	h-49.126c-47.399-18.66-89.57-64.386-135.19-80.133c35.214,116.587,197.799,177.414,343.989,179.139
	c42.654,0.43,114.86,21.462,147.432,0c98.792,1.617,128.452,65.572,190.518,104.828c66.815,42.39,151.747,67.732,227.296,98.902
	l6.202-6.254c-7.979-22.328-69.563-125.756-86.066-141.934C881.551,982.941,827.194,990.601,787.453,975.931"/>
<path fill="#C4161C" d="M4220.126,1012.924c-25.723,6.688-49.829,44.758-58.348,67.837c-29.606-0.216-35.431-4.854-47.832-14.771
	l-8.897-7.01l-2.317-27.613c-2.32-22.434-4.96-47.775,1.511-58.455l0.913-1.508v-1.834c-0.592-31.17,0.862-54.684,9.815-73.666
	c36.345,1.08,56.675,1.943,93.775,6.041l6.96,0.758v-50.799l-6.527,0.217l-24.75,1.723c-10.357,0.756-20.224,1.514-28.582,1.514
	c-10.623,0-15.154-1.297-17.148-2.483l-2.428-0.647c-17.2-1.619-19.951-3.34-27.501-7.656l-3.397-2.049l1.887-20.924
	c2.429-23.403,4.316-41.739-10.729-60.72l-2.533-2.05l-5.773-3.125l-5.715-1.942l-5.557-2.049l-2.423,5.502
	c-5.501,12.512-8.146,31.165-10.784,51.011c-2,13.914-3.887,28.041-6.961,39.15c-10.729,3.234-25.881,4.854-43.948,4.854
	l-8.733-0.105l-9.979,9.922v32.893l5.662,0.758l13.482,2.479l25.508-2.268c11.916,1.08,16.877,2.268,23.619,4.532
	c1.995,16.177-0.756,38.181-3.775,61.261c-3.399,27.285-6.903,55.326-2.967,77.113l8.412,25.129
	c4.316,10.136,8.844,20.814,10.029,36.021l0.219,3.775l3.558,1.51c24.968,10.568,45.403,15.746,62.608,15.746
	c13.374,0,24.857-3.129,34.24-9.17c40.284-4.422,49.828-33.215,59.211-61.043l5.93-16.93l1.564-3.885l-17.795-17.902
	L4220.126,1012.924z"/>
<path fill="#C4161C" d="M3768.069,1090.578c-18.66-1.402-44.272-3.346-52.849-8.953l-1.562-0.969h-8.734
	c-2.969-22.004-1.676-49.289-0.217-77.87c2.75-58.132,5.606-118.313-28.85-141.177c4.528-19.197,13.047-23.836,29.066-32.569
	l7.277-3.884l-0.217-4.099c-1.671-22.647-2.533-28.365-14.56-41.522c-9.06-7.439-18.766-10.569-33.487-13.698l-3.614-0.753
	l-2.478,2.803c-7.818,9.06-10.463,12.082-22.163,16.826l-4.098,3.129l0.213,4.527c0.595,15.101,0.919,23.514,7.171,32.787
	l1.566,1.62l15.801,6.253v25.239c-33.598-0.648-43.949,0.863-68.917,4.635l-18.013,2.482l0.975,6.365
	c1.775,13.156,2.8,15.959,5.334,22.756l2.211,6.578l3.506,0.756c16.016,3.559,46.646,6.037,78.568,6.364l2.482,2.372
	c0.163,12.724,0.702,26.422,1.242,40.658c1.777,45.404,3.774,96.42-5.719,129.422h-87.737v31.383l6.42-0.105
	c8.841-0.111,19.466-0.324,31.165-0.646c21.627-0.434,46.701-0.974,70.699-0.974c47.887,0,76.629,2.265,85.578,7.011l33.92,0.756
	v-23.943l-5.339-0.969C3786.889,1092.087,3778.151,1091.332,3768.069,1090.578"/>
<path fill="#C4161C" d="M3995.366,1044.958l-2.967-8.307l-5.341,0.969c-31.438,5.824-53.76,30.307-63.471,43.035
	c-61.2,1.188-70.693-12.729-88.384-38.504l-18.871-25.451c-1.459-68.811,13.266-78.193,45.08-98.361l24.377-16.395h35.375
	l0.646,17.041c0.218,12.834,0.43,25.885,5.069,40.336l0.916,2.699l7.602,3.342l18.119,9.275l2.75,2.266l3.291-1.186l19.685-9.924
	l17.095-8.629l4.42-2.912l-0.105-4.852c-0.651-14.561-0.975-22.867-6.527-31.604c-13.59-61.473-63.687-69.13-121.654-77.973
	l-3.562-0.434l-2.21,2.59c-10.838,12.941-25.509,21.678-41.088,30.843c-23.515,13.808-47.726,28.151-58.404,57.597l-0.324,38.393
	l-4.527,11.648c-4.855,10.246-4.855,15.424,4.639,28.688c3.286,51.879,30.357,68.482,56.512,84.664
	c12.728,7.873,25.992,15.959,37.102,28.363l2.316,2.59l3.346-0.539l18.226-2.373c19.521-2.373,39.743-4.961,50.258-10.033
	c27.612-3.125,37.212-13.156,47.347-23.615l15.907-14.561l3.235-2.266l-0.59-3.775
	C3998.764,1054.553,3997.79,1051.751,3995.366,1044.958"/>
<path fill="#C4161C" d="M4489.86,1079.36l-9.815-3.019c0.649-18.226,3.185-41.633,5.718-66.111
	c5.879-55.221,11.916-112.166,0.217-134.816V859.56l-4.855-1.08l-13.587-3.773c-10.462-3.236-19.309-5.391-26.155-2.586
	c-29.822,0.213-40.444,4.205-56.893,13.047l-4.311,2.482l1.237,4.852c6.418,24.916,27.288,33.76,45.729,41.633l10.139,4.422
	c4.207,22.863,5.986,55.976,5.393,98.36l-34.996,46.913l-17.853,9.383l-23.241,13.59c-21.732-0.539-42.603-14.666-53.438-36.131
	c-11.812-23.297-9.6-49.824,5.769-70.965l1.186-1.617l0.323-18.229c0.701-34.295,1.457-73.016-6.738-97.172l-1.727-3.451
	l-3.235-0.863c-12.889-3.668-14.236-4.098-21.302-10.785l-1.888-1.727l-2.64,0.111c-18.876,0.646-28.152,2.912-38.776,6.576
	l-4.312,3.018l0.107,4.75c0.7,15.096,1.025,23.402,7.065,32.352l3.017,5.283l14.563,9.277l7.065,0.434
	c4.527,26.205,5.496,52.092,6.631,77.221c1.888,44.327,3.614,86.278,23.835,123.703l1.778,3.234l3.667,0.111l28.151,3.234
	c10.351,1.51,21.081,3.235,32.028,3.235c12.566,0,23.943-2.267,34.678-7.011l16.337-11.432c5.608-5.071,10.624-9.705,24.538-11.865
	l6.633,21.031l1.508,1.621l17.363,7.223l13.48,5.178l1.726,1.296h2.212c24.215-1.296,29.498-4.208,41.093-10.896l10.517-5.607
	l-3.563-5.715C4526.744,1089.927,4507.062,1084.322,4489.86,1079.36"/>
<path fill="#C4161C" d="M5218.663,978.089c-11.594-1.725-25.941-3.885-43.141-8.412l-29.82-11.973l-26.854-11.324v-27.285
	c14.232-3.346,27.713-7.55,38.77-16.826c21.732,2.695,33.811,10.139,46.59,18.012c12.946,7.874,26.21,16.07,48.911,18.658
	l4.906,0.541l1.727-4.639l2.21-6.58l4.208-5.715l0.218-4.748c1.023-27.824,1.883-49.719-14.561-64.168l-1.348-0.863
	c-3.401-1.619-13.914-7.012-88.332-7.012l-18.981,0.219h-1.995l-1.563,1.074c-5.392,3.776-7.173,3.887-19.089,4.855l-4.745,0.43
	l-1.675,1.619c-14.449,14.773-36.344,35.375-54.569,48.855l-2.536,1.943v3.234c0.539,41.739,12.943,56.513,27.289,73.662
	l16.659,22.217l1.888,3.129h3.668c52.092-0.973,84.014-0.539,123.814,16.822l1.186,3.559l3.074,5.719l0.484,0.43
	c-1.564,23.406-6.309,27.611-14.938,35.051l-12.351,12.082l-3.018,0.105c-56.188,0-70.104-12.617-91.296-31.599
	c-7.656-6.904-16.339-14.776-27.179-22.11l-10.625-10.785l-18.656,18.768v2.586c-0.107,32.25,2.859,52.307,20.006,72.152
	l1.781,1.403c7.71,4.208,43.464,7.442,69.133,7.442c22.646,0,38.178-2.265,46.266-6.686c34.568-1.186,46.378-10.246,61.262-21.678
	l14.184-10.355l2.75-1.727l0.105-3.342C5275.337,990.167,5263.743,984.884,5218.663,978.089"/>
<path fill="#C4161C" d="M4773.454,867.004l-1.67-2.267l-2.752-0.217l-19.415-2.266c-11.483-1.615-22.431-3.125-32.731-3.125
	c-14.236,0-33.971,2.586-44.488,23.404c-20.33-2.373-22.863-7.334-31.061-22.434l-4.259-7.768l-9.06-0.323l-23.459-0.216
	c-21.299,0-47.887,0.861-65.465,6.902l-4.745,1.621l0.429,4.961c1.781,16.934,4.316,22.97,7.39,30.09l5.229,14.344l1.514,5.502
	l5.658-0.975l20.656-5.713c10.029-3.67,14.885-6.258,25.396-0.65l13.916,4.748l-1.025,19.518
	c-1.836,36.025-4.316,80.459,7.333,101.057c-0.11,25.023-2.912,34.299-9.76,47.457h-64.012v27.502l9.922,9.922h9.276l21.516,0.107
	c9.868,0.109,20.763,0.216,31.816,0.216c47.08,0,72.098-1.942,82.722-6.47h17.201v-23.297l-4.529-1.404
	c-14.989-4.744-25.452-5.283-38.826-5.713l-13.697-0.54c-9.06-27.501-17.685-83.694-5.552-101.597l1.024-1.402l0.106-1.832
	c1.888-37.425,18.982-48.856,40.77-63.311l22.379-16.605l2.75,0.43l9.059,3.342l3.777,27.506l0.857,18.871l0.812,3.451l3.181,1.08
	l6.525,2.262l6.525,4.855l2.857-0.756c15.045-3.342,20.546-7.225,27.072-11.756l11.375-7.227l3.397-1.832v-3.776
	c0-34.835-5.173-41.952-16.984-55.109L4773.454,867.004"/>
<path fill="#C4161C" d="M4991.203,957.059h-136.271c0.54-10.356,1.188-15.53,5.285-21.894c6.85-15.641,18.119-22.541,31.171-30.737
	l20.869-14.993h31.601c14.775,15.746,33.971,30.846,51.555,40.658C4994.761,942.605,4993.413,949.939,4991.203,957.059
	 M4909.618,852.121l-2.539,0.105l-12.295,12.402c-39.852,1.941-65.031,23.19-76.841,65.141
	c-11.917,17.367-19.255,64.279-6.632,85.205c2.317,59.318,35.749,91.887,94.42,91.887c42.602,0,88.818-16.934,117.611-32.676
	l3.347-1.941v-43.572l-8.413,2.912c-22.324,7.764-47.832,30.09-62.498,49.072h-55.922l-57.162-51.768v-0.65
	c1.08-10.785,1.188-12.617,4.745-17.902l1.079-1.615v-8.953c15.691-2.049,39.741-2.482,63.037-3.018
	c44.651-0.975,73.34-2.16,85.851-8.308c26.801-0.646,35.858-12.077,38.987-18.872c5.068-11.541,1.404-25.779-9.977-39.582
	C5021.349,880.485,4975.729,850.501,4909.618,852.121"/>
<path fill="#C4161C" d="M3481.886,1069.007c-16.877,7.227-30.898,5.713-42.168-5.068l-1.781-1.296l-13.371-9.165l-7.928-7.01
	l-5.066-27.396c-5.445-24.699-10.085-46.16,4.041-63.955l1.242-1.402l0.213-1.939c2.427-23.943,9.709-31.064,19.9-40.986
	l13.803-14.99h36.563l0.11,0.105c7.061,10.033,9.381,12.406,22.538,17.043C3525.946,973.667,3536.459,1045.17,3481.886,1069.007
	 M3531.499,872.179c-17.58-14.668-34.134-21.895-50.689-21.895c-16.229,0-29.822,7.01-41.738,13.157
	c-13.59,6.904-26.209,12.729-38.236,7.767l-13.157-8.953c-9.383-7.549-21.083-16.932-36.075-16.932l-22.54,6.902h-17.364
	l0.593,6.795c1.296,16.932,2.966,22.434,6.364,32.463l1.564,4.314h35.43c6.525,87.466,14.287,195.104-5.178,277.5h-32.141v31.277
	h123.273v-30.523l-5.662-0.754c-18.875-1.83-22.484-4.637-29.816-10.139l-7.501-5.391c-0.212-19.305,0.323-41.85,4.315-57.592
	l24.428,5.715c14.994,3.991,30.575,8.09,45.837,8.09c12.674,0,23.298-2.806,32.462-8.736c32.25-11.326,54.843-40.77,63.689-82.832
	C3581.166,966.548,3565.31,903.566,3531.499,872.179"/>
</svg>
