<svg version="1.2" xmlns="http://www.w3.org/2000/svg" viewBox="0 0 1584 315" width="1584" height="315">
	<title>logo_updated-svg</title>
	<style>
		.s0 { fill: #ffffff } 
	</style>
	<path id="Layer" fill-rule="evenodd" class="s0" d="m0 3.4h305.9v305.9h-305.9zm207.9 98.2h86.7v-86.8h-86.7zm0 98.3h86.7v-86.9h-86.7zm0 98.2h86.7v-86.8h-86.7zm-109.7-86.9h-86.9v86.9h86.9zm0-98.2h-86.9v86.8h86.9zm0-98.2h-86.9v86.8h86.9zm11.4 86.9h86.7v-86.9h-86.7zm0 98.3h86.7v-86.8h-86.7zm0 98.2h86.7v-86.9h-86.7z"/>
	<path id="Layer" fill-rule="evenodd" class="s0" d="m1110.4 50.9v-48.2h12.7v109.6h-12.7v-49h-59.1v49h-12.7v-109.6h12.7v48.2zm256.4-48.2h12.7v69c0 29-16.3 42.3-41.5 42.3-25.1 0-41.4-13.3-41.4-42.3v-69h12.7v69c0 19.3 8.9 29.6 28.7 29.6 19.9 0 28.8-10.3 28.8-29.6zm86.3 48.8c15.8 3.8 32.9 8 32.9 30.1 0 22-17.1 32.4-36.2 32.4-20.5 0-40.8-12.3-40.8-34.9 0-1.4 0-4.3 0.3-6.4h13.3c-0.3 2.3-0.3 5-0.3 5.9 0 14.9 14 22.7 28 22.7 12.5 0 22.7-6.3 22.7-18.5 0-13.9-12.4-16.7-25.9-20-15.4-3.9-32.8-8.3-32.8-30.4 0-19.4 13.3-31.4 33.6-31.4 15.5 0 28 7.5 33.7 19.1l-11.8 6.4c-4.2-7.9-13.3-12.7-23.1-12.7-11.2 0-19.6 6.9-19.6 17.5 0 14.1 12.5 17 26 20.2zm130.1-36.5h-56v36.2h48v12.3h-48v36.5h56v12.3h-68.7v-109.5h68.7zm-945 101.6c-32 0-57.8-25.8-57.8-57.8 0-31.9 25.8-57.7 57.8-57.7 31.9 0 57.7 25.8 57.7 57.7 0 32-25.8 57.8-57.7 57.8zm44.1-57.8c0-24.4-19.7-44.1-44.1-44.1-24.4 0-44.1 19.7-44.1 44.1 0 24.4 19.7 44.1 44.1 44.1 24.4 0 44.1-19.7 44.1-44.1zm-124.2 23.5c0 22.1-17.1 32.5-36.3 32.5-20.6 0-41-12.3-41-35 0-1.5 0-4.3 0.3-6.5h13.4c-0.3 2.4-0.3 5-0.3 6 0 14.9 14.1 22.7 28.1 22.7 12.5 0 22.7-6.2 22.7-18.5 0-14-12.4-16.8-25.9-20.1-15.5-3.9-32.9-8.3-32.9-30.4 0-19.5 13.3-31.6 33.7-31.6 15.5 0 28.1 7.5 33.8 19.2l-11.8 6.4c-4.2-7.8-13.4-12.7-23.2-12.7-11.2 0-19.7 6.9-19.7 17.5 0 14.2 12.6 17 26.1 20.3 15.9 3.8 33 8 33 30.2zm651.1 34.3c-31.9 0-57.7-25.8-57.7-57.8 0-31.9 25.8-57.7 57.7-57.7 32 0 57.8 25.8 57.8 57.7 0 32-25.8 57.8-57.8 57.8zm44.1-57.8c0-24.4-19.7-44.1-44.1-44.1-24.4 0-44.1 19.7-44.1 44.1 0 24.4 19.7 44.1 44.1 44.1 24.4 0 44.1-19.7 44.1-44.1zm-457.4-7.9v-48.2h12.7v109.5h-12.7v-49h-59.2v49h-12.6v-109.5h12.6v48.2zm98.9 65.7c-31.9 0-57.7-25.8-57.7-57.8 0-31.9 25.8-57.7 57.7-57.7 32 0 57.8 25.8 57.8 57.7 0 32-25.8 57.8-57.8 57.8zm44.1-57.8c0-24.4-19.7-44.1-44.1-44.1-24.3 0-44 19.7-44 44.1 0 24.4 19.7 44.1 44 44.1 24.4 0 44.1-19.7 44.1-44.1zm-100.1 255c-31.9 0-57.8-25.8-57.8-57.7 0-32 25.9-57.8 57.8-57.8 31.9 0 57.7 25.8 57.7 57.8 0 31.9-25.8 57.7-57.7 57.7zm44.1-57.8c0-24.3-19.7-44.1-44.1-44.1-24.4 0-44.1 19.8-44.1 44.1 0 24.4 19.7 44.2 44.1 44.2 24.4 0 44.1-19.8 44.1-44.2zm343.8 53.5c-3.8 0-6.9-3.1-6.9-6.9 0-3.9 3.1-7 6.9-7 3.8 0 6.9 3.1 6.9 7 0 3.8-3.1 6.9-6.9 6.9zm-486.7-78c-8-11.8-21.4-19.5-36.6-19.5-24.4 0-44.2 19.8-44.2 44.2 0 24.4 19.8 44.2 44.2 44.2 18.1 0 33.6-10.9 40.5-26.5l13 4.4c-8.7 21-29.4 35.8-53.5 35.8-32 0-57.9-26-57.9-57.9 0-32 25.9-57.9 57.9-57.9 20.6 0 38.8 10.8 49 27.1l-12.4 6.1zm419.5 7c-17.3 0-31.3 14-31.3 31.2 0 17.3 14 31.3 31.3 31.3 12.8 0 23.8-7.7 28.6-18.7l9.2 3.1c-6.1 14.8-20.7 25.3-37.8 25.3-22.6 0-41-18.3-41-41 0-22.6 18.4-40.9 41-40.9 14.6 0 27.4 7.6 34.7 19.2l-8.8 4.3c-5.6-8.4-15.1-13.8-25.9-13.8zm-178.2 70.9v-109.6h12.7v109.6zm111.7 0h-11.9v-52.9c0-9.5-6.7-15.9-17.8-15.9-14.6 0-23 8.7-23 21.4v47.4h-12v-79.2h12v8.9c5.1-7.5 12.8-10.3 24.1-10.3 18.1 0 28.6 11.9 28.6 27.7zm-611.4-27.3c0-16.9 10.3-25.2 22.8-30.9-5.8-6.7-11.1-15.2-10.9-25.3 0.1-16 13.2-27.7 30.8-27.7 17.6 0 31.7 12.6 31.9 30h-13.6c0-10.4-7.8-17.7-18.3-17.7-10.5 0-17.1 6.9-17.1 16.4 0 7.3 4.2 14.7 11.7 21.4l35.3 32.2c5.1-6.5 9.1-14.5 12-23.4h13.1c-3.8 12-9.5 22.4-16.3 31.2l23.4 21h-19l-13.1-11.8c-10.8 9.9-23.5 15.7-36.8 15.7-21 0-35.9-13.1-35.9-31.1zm64 7.4l-32.4-29.7c-10.9 4.2-17.9 10.3-17.9 21.9 0 11.5 10.2 19.2 24.1 19.2 9.7 0 18.5-4.1 26.2-11.4z"/>
</svg>